<svg xmlns:xlink="http://www.w3.org/1999/xlink" xmlns="http://www.w3.org/2000/svg" width="131.907" height="36.642" viewBox="0 0 131.907 36.642">
<g id="Group_99" data-name="Group 99" transform="translate(-19.124 -33.467)">
<g id="Group_21" data-name="Group 21" transform="translate(61.216 38.679)">
<path id="Path_28" data-name="Path 28" d="M178.321,53.264h1.532l4.656,10.665h-1.833l-1.217-2.794h-4.776l-1.2,2.794h-1.818Zm-.961,6.309h3.425l-1.712-3.935Z" transform="translate(-173.665 -53.084)" fill="#17005D"></path>
<path id="Path_29" data-name="Path 29" d="M229.531,53.264h3.845a2.973,2.973,0,0,1,3.229,3.034,2.765,2.765,0,0,1-2.418,2.839l3.965,4.792H235.99l-3.905-4.686h-.8v4.686h-1.758Zm3.635,4.446c1.036,0,1.682-.5,1.682-1.412s-.646-1.412-1.682-1.412h-1.877V57.71Z" transform="translate(-214.315 -53.084)" fill="#17005D"></path>
<path id="Path_30" data-name="Path 30" d="M272.658,58.116a5.553,5.553,0,0,1,10.319-2.809l-1.517.871a3.815,3.815,0,1,0,0,3.875l1.517.871a5.553,5.553,0,0,1-10.319-2.809Z" transform="translate(-245.695 -52.603)" fill="#17005D"></path>
<path id="Path_31" data-name="Path 31" d="M327.1,54.946H324V53.264h7.961v1.682h-3.109v8.982H327.1Z" transform="translate(-283.055 -53.084)" fill="#17005D"></path>
<path id="Path_32" data-name="Path 32" d="M370.052,53.264h1.757V63.929h-1.757Z" transform="translate(-316.562 -53.084)" fill="#17005D"></path>
<path id="Path_33" data-name="Path 33" d="M394.648,58.116a5.553,5.553,0,0,1,10.319-2.809l-1.517.871a3.815,3.815,0,1,0,0,3.875l1.517.871a5.553,5.553,0,0,1-10.319-2.809Z" transform="translate(-334.459 -52.603)" fill="#17005D"></path>
</g>
<g id="Group_22" data-name="Group 22" transform="translate(61.521 53.891)">
<path id="Path_34" data-name="Path 34" d="M174.784,109.115h3.68a2.992,2.992,0,0,1,3.184,2.944,2.432,2.432,0,0,1-.991,2.058,2.606,2.606,0,0,1,1.712,2.538,3.2,3.2,0,0,1-3.44,3.124h-4.145Zm3.59,4.491a1.417,1.417,0,0,0,1.547-1.442,1.442,1.442,0,0,0-1.547-1.442h-1.833v2.884Zm.511,4.566c1.142,0,1.772-.631,1.772-1.532s-.631-1.532-1.772-1.532h-2.343v3.064Z" transform="translate(-174.784 -108.935)" fill="#17005D"></path>
<path id="Path_35" data-name="Path 35" d="M220.172,115.6v-6.489h1.757v6.519a2.49,2.49,0,1,0,4.972,0v-6.519h1.758V115.6a4.245,4.245,0,1,1-8.487,0Z" transform="translate(-207.81 -108.935)" fill="#17005D"></path>
<path id="Path_36" data-name="Path 36" d="M268.483,117.556l1.382-1.1a2.9,2.9,0,0,0,2.479,1.367c1.006,0,1.727-.526,1.727-1.322,0-.766-.5-1.247-1.517-1.622l-1.171-.421c-1.7-.616-2.523-1.547-2.523-3,0-1.862,1.487-3,3.469-3a4.059,4.059,0,0,1,3.229,1.457l-1.217,1.187a2.518,2.518,0,0,0-2.028-.991c-.9,0-1.682.451-1.682,1.232s.526,1.127,1.622,1.532l1.081.406c1.577.586,2.523,1.517,2.509,3.124,0,1.862-1.472,3.079-3.56,3.079A4.241,4.241,0,0,1,268.483,117.556Z" transform="translate(-242.962 -108.454)" fill="#17005D"></path>
<path id="Path_37" data-name="Path 37" d="M313.54,109.115H315.3V119.78H313.54Z" transform="translate(-275.747 -108.935)" fill="#17005D"></path>
<path id="Path_38" data-name="Path 38" d="M348.383,119.78l-6.008-7.675v7.675h-1.757V109.115h1.532l5.993,7.66v-7.66h1.772V119.78Z" transform="translate(-295.449 -108.935)" fill="#17005D"></path>
<path id="Path_39" data-name="Path 39" d="M395.381,109.115h6.414V110.8h-4.656v2.734h3.755v1.682h-3.755V118.1h4.656v1.682h-6.414Z" transform="translate(-335.297 -108.935)" fill="#17005D"></path>
<path id="Path_40" data-name="Path 40" d="M434.372,117.556l1.382-1.1a2.9,2.9,0,0,0,2.478,1.367c1.006,0,1.727-.526,1.727-1.322,0-.766-.5-1.247-1.517-1.622l-1.172-.421c-1.7-.616-2.523-1.547-2.523-3,0-1.862,1.487-3,3.47-3a4.058,4.058,0,0,1,3.229,1.457L440.23,111.1a2.519,2.519,0,0,0-2.028-.991c-.9,0-1.682.451-1.682,1.232s.526,1.127,1.622,1.532l1.082.406c1.577.586,2.523,1.517,2.508,3.124,0,1.862-1.472,3.079-3.56,3.079A4.241,4.241,0,0,1,434.372,117.556Z" transform="translate(-363.668 -108.454)" fill="#17005D"></path>
<path id="Path_41" data-name="Path 41" d="M476.395,117.556l1.382-1.1a2.9,2.9,0,0,0,2.478,1.367c1.006,0,1.727-.526,1.727-1.322,0-.766-.5-1.247-1.517-1.622l-1.171-.421c-1.7-.616-2.524-1.547-2.524-3,0-1.862,1.487-3,3.47-3a4.058,4.058,0,0,1,3.229,1.457l-1.216,1.187a2.519,2.519,0,0,0-2.028-.991c-.9,0-1.682.451-1.682,1.232s.526,1.127,1.622,1.532l1.082.406c1.577.586,2.523,1.517,2.508,3.124,0,1.862-1.472,3.079-3.56,3.079A4.241,4.241,0,0,1,476.395,117.556Z" transform="translate(-394.245 -108.454)" fill="#17005D"></path>
</g>
<g id="Group_23" data-name="Group 23" transform="translate(19.124 33.466)">
<path id="Path_42" data-name="Path 42" d="M34.99,48.454l2.887-1.667V35.133L34.99,33.466,32.1,35.133V46.788L22.01,40.96l-2.887,1.667V45.96l10.093,5.827L32.1,50.121Z" transform="translate(-19.124 -33.466)" fill="#7565CA"></path>
<path id="Path_43" data-name="Path 43" d="M100.955,62.647,98.068,60.98,87.975,66.807v10l10.093,5.827,2.887-1.667V77.634L90.862,71.807l10.093-5.827Z" transform="translate(-69.222 -53.486)" fill="#D946B2"></path>
<path id="Path_44" data-name="Path 44" d="M32.1,102.4l-2.887-1.667-10.093,5.827v3.333l2.887,1.667L32.1,105.731v11.654l2.887,1.667,2.887-1.667V105.731l-2.887-1.667Z" transform="translate(-19.124 -82.41)" fill="#17005D"></path>
</g>
</g>
</svg>