<svg xmlns:xlink="http://www.w3.org/1999/xlink" xmlns="http://www.w3.org/2000/svg" width="202.311" height="32.31" viewBox="0 0 202.311 32.31">
<g id="Group_97" data-name="Group 97" transform="translate(-197.342 -328.791)">
<g id="Group_90" data-name="Group 90" transform="translate(284.359 343.411)">
<path id="Path_19" data-name="Path 19" d="M297.985,352.62h-2.479v-7.336H296.9v2.067h1.085c1.168,0,1.706.734,1.706,1.861v1.549C299.691,351.886,299.154,352.62,297.985,352.62Zm.309-3.253c0-.487-.185-.777-.682-.777H296.9v2.791h.713c.5,0,.682-.289.682-.776Z" transform="translate(-295.506 -345.284)" fill="#00225B"></path>
<path id="Path_20" data-name="Path 20" d="M303.214,352.885c-1.167,0-1.706-.734-1.706-1.86v-3.409h1.4v3.254c0,.487.187.776.683.776h.711v-4.03h1.4v5.269Z" transform="translate(-296.188 -345.549)" fill="#00225B"></path>
<path id="Path_21" data-name="Path 21" d="M309.442,352.885h-1.93v-1.239h1.911c.485,0,.672-.1.672-.362s-.27-.289-.672-.351l-.362-.051c-.641-.094-1.549-.342-1.549-1.592s.867-1.674,2.044-1.674h1.727v1.239h-1.758c-.454,0-.62.082-.62.341s.238.248.6.3l.434.063c.7.1,1.549.393,1.549,1.6C311.489,352.5,310.767,352.885,309.442,352.885Z" transform="translate(-296.869 -345.549)" fill="#00225B"></path>
<path id="Path_22" data-name="Path 22" d="M313.281,346.679v-1.4h1.4v1.4Zm0,5.941v-5.269h1.4v5.269Z" transform="translate(-297.524 -345.284)" fill="#00225B"></path>
<path id="Path_23" data-name="Path 23" d="M319.043,352.885v-3.253c0-.487-.185-.777-.682-.777h-.714v4.03h-1.393v-5.269h2.478c1.168,0,1.707.734,1.707,1.861v3.408Z" transform="translate(-297.862 -345.549)" fill="#00225B"></path>
<path id="Path_24" data-name="Path 24" d="M323.65,350.818a.754.754,0,0,0,.848.828h1.683v1.239h-1.787a1.916,1.916,0,0,1-2.138-2.1v-1.054a1.9,1.9,0,0,1,2.015-2.118h.207a1.883,1.883,0,0,1,1.962,2.118v1.084Zm1.4-1.186c0-.487-.166-.88-.63-.88h-.135c-.465,0-.63.394-.63.88v.185h1.4Z" transform="translate(-298.544 -345.549)" fill="#00225B"></path>
<path id="Path_25" data-name="Path 25" d="M330.028,352.885H328.1v-1.239h1.911c.485,0,.672-.1.672-.362s-.269-.289-.672-.351l-.362-.051c-.641-.094-1.549-.342-1.549-1.592s.867-1.674,2.044-1.674h1.727v1.239h-1.758c-.454,0-.62.082-.62.341s.237.248.6.3l.434.063c.7.1,1.549.393,1.549,1.6C332.073,352.5,331.351,352.885,330.028,352.885Z" transform="translate(-299.207 -345.549)" fill="#00225B"></path>
<path id="Path_26" data-name="Path 26" d="M335.576,352.885h-1.933v-1.239h1.911c.487,0,.672-.1.672-.362s-.269-.289-.672-.351l-.362-.051c-.641-.094-1.549-.342-1.549-1.592s.867-1.674,2.046-1.674h1.724v1.239h-1.755c-.456,0-.62.082-.62.341s.238.248.6.3l.433.063c.7.1,1.551.393,1.551,1.6C337.621,352.5,336.9,352.885,335.576,352.885Z" transform="translate(-299.837 -345.549)" fill="#00225B"></path>
</g>
<g id="Group_91" data-name="Group 91" transform="translate(326.21 343.411)">
<path id="Path_27" data-name="Path 27" d="M342.717,346.679v-1.4h1.4v1.4Zm0,5.941v-5.269h1.4v5.269Z" transform="translate(-342.717 -345.284)" fill="#00225B"></path>
<path id="Path_28" data-name="Path 28" d="M348.479,352.885v-3.253c0-.487-.185-.777-.681-.777h-.714v4.03h-1.394v-5.269h2.479c1.167,0,1.706.734,1.706,1.861v3.408Z" transform="translate(-343.054 -345.549)" fill="#00225B"></path>
<path id="Path_29" data-name="Path 29" d="M353.79,352.885a1.864,1.864,0,0,1-2.1-2.067v-1.136a1.864,1.864,0,0,1,2.1-2.066h1.26v1.239h-1.168c-.63,0-.794.352-.794.878v1.033c0,.559.185.879.807.879h1.156v1.239Z" transform="translate(-343.736 -345.549)" fill="#00225B"></path>
<path id="Path_30" data-name="Path 30" d="M358.3,352.885c-1.167,0-1.7-.734-1.7-1.86v-3.409H358v3.254c0,.487.185.776.68.776h.714v-4.03h1.393v5.269Z" transform="translate(-344.293 -345.549)" fill="#00225B"></path>
<path id="Path_31" data-name="Path 31" d="M365.2,352.62h-2.479v-7.336h1.393v2.067H365.2c1.167,0,1.7.734,1.7,1.861v1.549C366.9,351.886,366.365,352.62,365.2,352.62Zm.309-3.253c0-.487-.185-.777-.682-.777h-.714v2.791h.714c.5,0,.682-.289.682-.776Z" transform="translate(-344.988 -345.284)" fill="#00225B"></path>
<path id="Path_32" data-name="Path 32" d="M370.131,352.885c-1.013,0-1.643-.423-1.643-1.549,0-1.054.692-1.551,1.86-1.551h.93v-.2c0-.475-.227-.672-.753-.672H368.9v-1.292h1.849c1.52,0,1.924.683,1.924,1.964v3.306Zm1.146-2.1h-.7c-.5,0-.693.155-.693.5,0,.319.185.465.589.465h.8Z" transform="translate(-345.643 -345.549)" fill="#00225B"></path>
<path id="Path_33" data-name="Path 33" d="M376.288,352.686c-.981,0-1.528-.517-1.528-1.7v-2.326h-.722v-1.239h.722v-1.55h1.4v1.55h1.239v1.239h-1.239v2.15c0,.424.187.589.526.589h.714v1.292Z" transform="translate(-346.273 -345.35)" fill="#00225B"></path>
<path id="Path_34" data-name="Path 34" d="M378.7,346.679v-1.4h1.393v1.4Zm0,5.941v-5.269h1.393v5.269Z" transform="translate(-346.803 -345.284)" fill="#00225B"></path>
<path id="Path_35" data-name="Path 35" d="M383.8,352.885h-.291a1.787,1.787,0,0,1-1.951-2.015v-1.238a1.787,1.787,0,0,1,1.951-2.016h.291a1.788,1.788,0,0,1,1.953,2.016v1.238A1.788,1.788,0,0,1,383.8,352.885Zm.558-3.306c0-.475-.216-.745-.61-.745h-.185c-.394,0-.611.27-.611.745v1.343c0,.475.216.744.611.744h.185c.394,0,.61-.269.61-.744Z" transform="translate(-347.127 -345.549)" fill="#00225B"></path>
<path id="Path_36" data-name="Path 36" d="M390.358,352.885v-3.253c0-.487-.185-.777-.681-.777h-.713v4.03h-1.4v-5.269h2.481c1.167,0,1.7.734,1.7,1.861v3.408Z" transform="translate(-347.81 -345.549)" fill="#00225B"></path>
</g>
<g id="Group_92" data-name="Group 92" transform="translate(373.749 343.928)">
<path id="Path_37" data-name="Path 37" d="M398.444,352.885a1.864,1.864,0,0,1-2.1-2.067v-1.136a1.864,1.864,0,0,1,2.1-2.066h1.26v1.239h-1.169c-.63,0-.794.352-.794.878v1.033c0,.558.185.879.8.879H399.7v1.239Z" transform="translate(-396.346 -346.066)" fill="#00225B"></path>
<path id="Path_38" data-name="Path 38" d="M402.415,350.818a.753.753,0,0,0,.847.828h1.684v1.239H403.16a1.918,1.918,0,0,1-2.141-2.1v-1.054a1.9,1.9,0,0,1,2.016-2.118h.206a1.885,1.885,0,0,1,1.965,2.118v1.084Zm1.393-1.186c0-.487-.165-.88-.628-.88h-.135c-.465,0-.63.394-.63.88v.185h1.393Z" transform="translate(-396.877 -346.066)" fill="#00225B"></path>
<path id="Path_39" data-name="Path 39" d="M409.813,352.885v-3.253c0-.487-.187-.777-.683-.777h-.713v4.03h-1.394v-5.269H409.5c1.167,0,1.7.734,1.7,1.861v3.408Z" transform="translate(-397.558 -346.066)" fill="#00225B"></path>
<path id="Path_40" data-name="Path 40" d="M414.753,352.686c-.981,0-1.529-.517-1.529-1.7v-2.326H412.5v-1.239h.722v-1.55h1.4v1.55h1.239v1.239H414.62v2.15c0,.424.185.589.526.589h.714v1.292Z" transform="translate(-398.181 -345.867)" fill="#00225B"></path>
<path id="Path_41" data-name="Path 41" d="M419.24,348.96c-.5,0-.683.237-.683.722v3.2h-1.393v-3.408c0-1.127.536-1.861,1.7-1.861h.932v1.344Z" transform="translate(-398.71 -346.066)" fill="#00225B"></path>
<path id="Path_42" data-name="Path 42" d="M422.242,350.818a.753.753,0,0,0,.848.828h1.682v1.239h-1.786a1.916,1.916,0,0,1-2.138-2.1v-1.054a1.9,1.9,0,0,1,2.015-2.118h.206a1.884,1.884,0,0,1,1.964,2.118v1.084Zm1.4-1.186c0-.487-.164-.88-.63-.88h-.135c-.466,0-.63.394-.63.88v.185h1.4Z" transform="translate(-399.128 -346.066)" fill="#00225B"></path>
</g>
<g id="Group_95" data-name="Group 95" transform="translate(197.342 328.791)">
<g id="Group_94" data-name="Group 94">
<g id="Group_93" data-name="Group 93" transform="translate(31.251 5.563)">
<path id="Path_43" data-name="Path 43" d="M254.811,345.778a2.814,2.814,0,0,0,1.864,2.529c1.376.4,3.105.31,3.948-.8a1.7,1.7,0,0,0,.222-1.464c-.222-.753-.887-.932-2.218-1.2-1.154-.267-3.993-.577-5.5-1.731a4.184,4.184,0,0,1-1.2-4.659,5.328,5.328,0,0,1,4.438-3.237,7.6,7.6,0,0,1,6.387,1.729,4.986,4.986,0,0,1,1.288,3.46h-3.284a3.361,3.361,0,0,0-.265-1.153,2.533,2.533,0,0,0-2.352-1.42,2.783,2.783,0,0,0-2.84,1.2,1.318,1.318,0,0,0,.135,1.33c.709.8,2.084.842,3.283,1.065,2.039.355,4.259.71,5.234,2.4a4.847,4.847,0,0,1-.221,5.057,6.5,6.5,0,0,1-1.82,1.641,9.293,9.293,0,0,1-5.59.622,5.632,5.632,0,0,1-4.036-2.484,5.083,5.083,0,0,1-.933-2.885Z" transform="translate(-234.726 -335.072)" fill="#00225B"></path>
<path id="Path_44" data-name="Path 44" d="M237.775,341.513h5.591a3.238,3.238,0,0,0-2.174-3.105,3.668,3.668,0,0,0-3.461.71,5.489,5.489,0,0,0-1.242,3.727c.044,2.086.443,3.549,1.641,4.437a3.649,3.649,0,0,0,4.215.177,3.141,3.141,0,0,0,1.153-1.775h3.948a7.026,7.026,0,0,1-2.484,4.126,7.722,7.722,0,0,1-7.142,1.021,8.162,8.162,0,0,1-5.148-9.006,9.965,9.965,0,0,1,1.155-3.284,6.937,6.937,0,0,1,4.924-3.372,7.117,7.117,0,0,1,6.388,2.13,10.387,10.387,0,0,1,2.041,4.081,10.583,10.583,0,0,1,.266,2.929h-9.671Z" transform="translate(-232.596 -335.068)" fill="#00225B"></path>
<path id="Path_45" data-name="Path 45" d="M281.927,347v-4.793a19.586,19.586,0,0,0-.309-3.638c-.268-1.152-1.288-3.061-4.571-3.461-.613-.043-1.267-.044-1.923-.044h-.03v0a10.374,10.374,0,0,0-3.164.575,4.9,4.9,0,0,0-2.928,4.7h3.548a2.305,2.305,0,0,1,1.375-2.218,3.228,3.228,0,0,1,1.2-.222h0a3.236,3.236,0,0,1,2.365.756,1.554,1.554,0,0,1,.4,1.508c-.222.932-1.243,1.241-2.8,1.464v.006c-.525.085-1.136.128-1.786.215-1.864.223-4.525,1.154-5.148,3.861a4.453,4.453,0,0,0,1.6,4.3,6.406,6.406,0,0,0,3.861,1.2,7.9,7.9,0,0,0,1.509-.133v-.008a7.338,7.338,0,0,0,3.117-1.59,5,5,0,0,0,.443,1.288h3.727A8.933,8.933,0,0,1,281.927,347Zm-3.994-.577a3.174,3.174,0,0,1-2.838,1.818v.005a2.824,2.824,0,0,1-.855.038,2.1,2.1,0,0,1-1.952-1.109,1.79,1.79,0,0,1,.089-1.73c.533-.931,1.465-1.108,2.752-1.375v-.005a8.789,8.789,0,0,0,1.3-.262,3.5,3.5,0,0,0,1.684-.754A17.632,17.632,0,0,1,277.932,346.425Z" transform="translate(-236.626 -335.066)" fill="#00225B"></path>
</g>
<path id="Path_46" data-name="Path 46" d="M217.446,342.579h5.583s.282-.888-.773-2.095a3.26,3.26,0,0,0-4.171-.686c-1.081.574-2.563,2.982-1.654,6.377.921,3.445,4.922,4.124,7.345,3.33a4.918,4.918,0,0,0,2.977-2.41,6.268,6.268,0,0,0,.31-1.76h-9.617v-2.756Z" transform="translate(-199.478 -329.986)" fill="#00225B"></path>
<path id="Path_47" data-name="Path 47" d="M214.582,329.218a13.835,13.835,0,1,0,7.092,22.421,8.771,8.771,0,0,1-5-.263,8.909,8.909,0,0,1-5.8-11.891,7.211,7.211,0,0,1,10.7-3.2c3.692,2.648,3.367,7.683,3.354,7.846A13.837,13.837,0,0,0,214.582,329.218Zm-10.9,15.354a1.778,1.778,0,1,1,1.78-1.777A1.778,1.778,0,0,1,203.677,344.572Z" transform="translate(-197.342 -328.791)" fill="#00225B"></path>
</g>
</g>
<g id="Group_96" data-name="Group 96" transform="translate(381.471 356.694)">
<path id="Path_48" data-name="Path 48" d="M406.1,364.675a4.051,4.051,0,0,1-.93-.127c-.079-.018-.115-.055-.115-.121v-.277c0-.066.036-.1.115-.09a4.552,4.552,0,0,0,.881.133c.459,0,.785-.187.785-.676v-.181c0-.405-.217-.531-.574-.658l-.393-.139a.988.988,0,0,1-.784-1.014v-.151a1.075,1.075,0,0,1,1.225-1.105,4.084,4.084,0,0,1,.863.1c.079.018.115.054.115.121v.266c0,.066-.036.1-.115.09a4.884,4.884,0,0,0-.851-.1c-.459,0-.725.2-.725.622v.151c0,.3.207.441.483.537l.387.138a1.1,1.1,0,0,1,.882,1.136v.181C407.352,364.368,406.845,364.675,406.1,364.675Z" transform="translate(-405.057 -360.268)" fill="#00225B"></path>
<path id="Path_49" data-name="Path 49" d="M411.5,364.67a.135.135,0,0,1-.127.115h-.4c-.066,0-.1-.054-.121-.121l-.64-2.166-.64,2.166c-.018.067-.06.121-.127.121h-.4c-.066,0-.1-.049-.121-.115l-.766-2.789a.084.084,0,0,1,.09-.115h.314a.148.148,0,0,1,.139.115l.562,2.179.628-2.185a.129.129,0,0,1,.127-.109h.386a.129.129,0,0,1,.127.109l.628,2.185.561-2.179a.142.142,0,0,1,.133-.115h.32c.073,0,.1.06.085.127Z" transform="translate(-405.409 -360.438)" fill="#00225B"></path>
<path id="Path_50" data-name="Path 50" d="M415.365,363.45H413.85c.012.634.284.917.724.917a4.07,4.07,0,0,0,.67-.078.1.1,0,0,1,.115.1v.254c0,.066-.043.1-.115.121a3.872,3.872,0,0,1-.688.079c-.719,0-1.22-.417-1.22-1.461v-.254c0-.881.339-1.425,1.105-1.425.748,0,1.038.543,1.038,1.25v.387A.112.112,0,0,1,415.365,363.45Zm-.38-.519c0-.4-.1-.8-.537-.8-.482,0-.592.392-.6.911h1.135Z" transform="translate(-405.997 -360.43)" fill="#00225B"></path>
<path id="Path_51" data-name="Path 51" d="M418.636,364.623h-.284a.111.111,0,0,1-.114-.115v-.03a1.272,1.272,0,0,1-.665.206.9.9,0,0,1-.965-1.026V362.57a.9.9,0,0,1,.965-1.027,1.389,1.389,0,0,1,.665.182v-1.274a.111.111,0,0,1,.114-.115h.284a.112.112,0,0,1,.115.115v4.056A.112.112,0,0,1,418.636,364.623Zm-.4-2.476a1.659,1.659,0,0,0-.6-.151c-.369,0-.513.254-.513.574v1.087c0,.32.144.574.513.574a1.478,1.478,0,0,0,.6-.175Z" transform="translate(-406.369 -360.276)" fill="#00225B"></path>
<path id="Path_52" data-name="Path 52" d="M421.908,363.45h-1.516c.012.634.285.917.725.917a4.07,4.07,0,0,0,.67-.078.094.094,0,0,1,.114.1v.254c0,.066-.042.1-.114.121a3.888,3.888,0,0,1-.689.079c-.718,0-1.22-.417-1.22-1.461v-.254c0-.881.339-1.425,1.105-1.425.749,0,1.039.543,1.039,1.25v.387A.112.112,0,0,1,421.908,363.45Zm-.38-.519c0-.4-.1-.8-.537-.8-.483,0-.592.392-.6.911h1.136Z" transform="translate(-406.74 -360.43)" fill="#00225B"></path>
<path id="Path_53" data-name="Path 53" d="M425.179,364.778h-.285a.111.111,0,0,1-.114-.115v-1.938c0-.32-.079-.537-.459-.537a1.4,1.4,0,0,0-.658.223v2.252a.111.111,0,0,1-.115.115h-.283a.112.112,0,0,1-.115-.115v-2.789a.112.112,0,0,1,.115-.115h.283a.111.111,0,0,1,.115.115v.1a1.226,1.226,0,0,1,.773-.272c.64,0,.857.393.857,1.027v1.938A.112.112,0,0,1,425.179,364.778Z" transform="translate(-407.111 -360.43)" fill="#00225B"></path>
</g>
</g>
</svg>